{
  "accessors": [
    {
      "bufferView": 2,
      "componentType": 5126,
      "count": 1459,
      "max": [
        1.9004800319671631,
        1.9069900512695312,
        1.4407399892807007
      ],
      "min": [
        -2.0042400360107422,
        -1.9069900512695312,
        -0.24268999695777893
      ],
      "type": "VEC3"
    },
    {
      "bufferView": 2,
      "byteOffset": 17508,
      "componentType": 5126,
      "count": 1459,
      "max": [
        0.9990617036819458,
        0.99906039237976074,
        1
      ],
      "min": [
        -0.99564766883850098,
        -0.99906039237976074,
        -1
      ],
      "type": "VEC3"
    },
    {
      "bufferView": 3,
      "componentType": 5126,
      "count": 1459,
      "max": [
        0.9999997615814209,
        0.99762719869613647,
        0.99904215335845947,
        1
      ],
      "min": [
        -0.99999970197677612,
        -0.99999988079071045,
        -0.9823836088180542,
        1
      ],
      "type": "VEC4"
    },
    {
      "bufferView": 1,
      "componentType": 5126,
      "count": 1459,
      "max": [
        0.98945999145507812,
        0.99968999624252319
      ],
      "min": [
        0.00031000000308267772,
        0.0097300000488758087
      ],
      "type": "VEC2"
    },
    {
      "bufferView": 0,
      "componentType": 5125,
      "count": 6063,
      "max": [
        1458
      ],
      "min": [
        0
      ],
      "type": "SCALAR"
    }
  ],
  "asset": {
    "extras": {
      "author": "MrGraman (https://sketchfab.com/MrGraman)",
      "license": "CC-BY-NC-ND-4.0 (http://creativecommons.org/licenses/by-nc-nd/4.0/)",
      "source": "https://sketchfab.com/models/e6417d0201ed4a92a7a250f5d530777b",
      "title": "Coffe"
    },
    "generator": "Sketchfab-3.18.7",
    "version": "2.0"
  },
  "bufferViews": [
    {
      "buffer": 0,
      "byteLength": 24252,
      "byteOffset": 0,
      "name": "floatBufferViews",
      "target": 34963
    },
    {
      "buffer": 0,
      "byteLength": 11672,
      "byteOffset": 24252,
      "byteStride": 8,
      "name": "floatBufferViews",
      "target": 34962
    },
    {
      "buffer": 0,
      "byteLength": 35016,
      "byteOffset": 35924,
      "byteStride": 12,
      "name": "floatBufferViews",
      "target": 34962
    },
    {
      "buffer": 0,
      "byteLength": 23344,
      "byteOffset": 70940,
      "byteStride": 16,
      "name": "floatBufferViews",
      "target": 34962
    }
  ],
  "buffers": [
    {
      "byteLength": 94284,
      "uri": "scene.bin"
    }
  ],
  "extensionsUsed": [
    "KHR_materials_unlit"
  ],
  "images": [
    {
      "uri": "textures/material_baseColor.png"
    }
  ],
  "materials": [
    {
      "doubleSided": true,
      "emissiveFactor": [
        0,
        0,
        0
      ],
      "extensions": {
        "KHR_materials_unlit": {}
      },
      "name": "material",
      "pbrMetallicRoughness": {
        "baseColorFactor": [
          1,
          1,
          1,
          1
        ],
        "baseColorTexture": {
          "index": 0,
          "texCoord": 0
        },
        "metallicFactor": 0,
        "roughnessFactor": 1
      }
    }
  ],
  "meshes": [
    {
      "name": "Cup_0",
      "primitives": [
        {
          "attributes": {
            "NORMAL": 1,
            "POSITION": 0,
            "TANGENT": 2,
            "TEXCOORD_0": 3
          },
          "indices": 4,
          "material": 0,
          "mode": 4
        }
      ]
    }
  ],
  "nodes": [
    {
      "children": [
        1
      ],
      "name": "RootNode (gltf orientation matrix)",
      "rotation": [
        -0.70710678118654746,
        -0,
        -0,
        0.70710678118654757
      ]
    },
    {
      "children": [
        2
      ],
      "matrix": [
        1,
        0,
        0.00016896739543881267,
        0,
        0,
        1,
        0,
        0,
        -0.00016896739543881267,
        0,
        1,
        0,
        9.5839903224259615e-05,
        0,
        -8.3168997662141919e-06,
        1
      ],
      "name": "RootNode (model correction matrix)"
    },
    {
      "children": [
        3
      ],
      "name": "Root"
    },
    {
      "children": [
        4
      ],
      "matrix": [
        -0.94963000000000009,
        -0.027940000000000006,
        0,
        0,
        0.027940000000000006,
        -0.94963000000000009,
        0,
        0,
        0,
        0,
        1.0716999999999999,
        0,
        0,
        0,
        -0.074770000000000017,
        1
      ],
      "name": "Cup"
    },
    {
      "mesh": 0,
      "name": "Cup_0"
    }
  ],
  "samplers": [
    {
      "magFilter": 9729,
      "minFilter": 9987,
      "wrapS": 10497,
      "wrapT": 10497
    }
  ],
  "scene": 0,
  "scenes": [
    {
      "name": "OSG_Scene",
      "nodes": [
        0
      ]
    }
  ],
  "textures": [
    {
      "sampler": 0,
      "source": 0
    }
  ]
}

