<svg viewBox="0 0 257 147" xmlns="http://www.w3.org/2000/svg" fill-rule="evenodd" clip-rule="evenodd" stroke-linecap="round" stroke-linejoin="bevel" stroke-miterlimit="1.5"><path d="M229.938 11.878H29.657L8.837 126.36h238.329L229.938 11.878z" fill="none" stroke="#fff" stroke-width=".5"/><g fill="#fff" fill-rule="nonzero"><path d="M140.292 34.929c-1.192-.022-2.282.089-3.267.331-.986.243-1.827.641-2.524 1.196-.696.555-1.236 1.271-1.619 2.15-.383.878-.575 1.936-.575 3.175 0 .485.032.981.095 1.487.062.506.172.994.329 1.462.157.469.361.914.612 1.334.251.42.565.784.942 1.091.376.307.816.552 1.318.735.502.183 1.086.275 1.751.275.791 0 1.479-.167 2.063-.501a4.524 4.524 0 0 0 1.44-1.285c.38-.529.667-1.12.848-1.746a6.592 6.592 0 0 0 .282-1.866 3.78 3.78 0 0 0-.198-1.261 2.841 2.841 0 0 0-.565-.977 2.493 2.493 0 0 0-.894-.639 2.943 2.943 0 0 0-1.168-.226 3.064 3.064 0 0 0-1.233.234c-.358.157-.537.353-.537.59 0 .162.097.272.292.332.195.059.408.134.64.226.233.091.446.223.641.396.194.172.291.441.291.808 0 .431-.166.77-.499 1.018-.332.248-.762.372-1.29.372a1.869 1.869 0 0 1-1.478-.671c-.17-.2-.301-.431-.386-.679a2.33 2.33 0 0 1-.132-.767c0-.658.189-1.194.565-1.608.377-.415.87-.747 1.479-.994a9.391 9.391 0 0 1 2.09-.558 62.654 62.654 0 0 1 2.401-.331c.801-.095 1.602-.197 2.401-.307.785-.108 1.482-.27 2.09-.485.609-.215 1.102-.501 1.479-.857.376-.355.565-.829.565-1.422 0-.334-.073-.581-.217-.743a1.19 1.19 0 0 0-.48-.339 1.635 1.635 0 0 0-.697-.081c-.188 0-.351.019-.49.056a3.5 3.5 0 0 0-.386.13 3.99 3.99 0 0 1-.367.129 1.412 1.412 0 0 1-.414.056c-.301 0-.581-.105-.838-.315-.258-.21-.386-.546-.386-1.01 0-.431.094-.797.282-1.099.189-.301.427-.549.716-.743.289-.194.606-.337.951-.428.328-.09.667-.136 1.007-.138.641 0 1.203.095 1.686.283.483.189.891.436 1.224.744.333.307.581.651.744 1.034.163.382.245.762.245 1.139 0 .765-.12 1.436-.358 2.012a4.22 4.22 0 0 1-1.036 1.495 5.538 5.538 0 0 1-1.667 1.042c-.659.275-1.409.493-2.25.655.389.377.691.848.904 1.414.213.566.32 1.242.32 2.028 0 .873-.226 1.748-.678 2.626-.452.878-1.13 1.665-2.034 2.36-.904.695-2.03 1.26-3.38 1.697-1.35.436-2.916.654-4.699.654-1.506 0-2.893-.175-4.162-.525-1.268-.35-2.357-.862-3.267-1.535a7.293 7.293 0 0 1-2.137-2.465c-.515-.97-.772-2.074-.772-3.313 0-.873.138-1.664.414-2.375a6.68 6.68 0 0 1 1.102-1.891 8.026 8.026 0 0 1 1.563-1.439 11.728 11.728 0 0 1 1.779-1.034c.603-.28 1.193-.498 1.77-.654a10.993 10.993 0 0 1 1.545-.316 9.675 9.675 0 0 1-.688-.202 6.975 6.975 0 0 1-.904-.371 7.88 7.88 0 0 1-.969-.566 4.327 4.327 0 0 1-.876-.784 3.865 3.865 0 0 1-.631-1.042 3.456 3.456 0 0 1-.245-1.333c0-.711.182-1.35.546-1.915.364-.566.867-1.045 1.507-1.439.64-.393 1.39-.694 2.25-.905.86-.21 1.78-.315 2.759-.315 1.13 0 2.103.078 2.919.235.816.156 1.491.371 2.025.646.533.275.929.595 1.186.962.257.366.386.754.386 1.163 0 .194-.034.393-.104.598a1.66 1.66 0 0 1-.329.566c-.161.18-.356.325-.574.428-.233.113-.506.17-.82.17-.364 0-.631-.087-.8-.259a1.49 1.49 0 0 1-.367-.646 6.086 6.086 0 0 1-.179-.833 3.296 3.296 0 0 0-.236-.832 1.488 1.488 0 0 0-.555-.646c-.257-.173-.637-.259-1.139-.259-.39 0-.76.092-1.112.275a2.957 2.957 0 0 0-.932.776c-.27.334-.483.732-.64 1.195-.157.464-.235.97-.235 1.52 0 .506.106.983.32 1.43.213.447.53.843.951 1.188.42.344.938.63 1.553.856.616.226 1.331.372 2.147.436v.76zm-68.607 4.403l.052-.257c.018-.093.026-.188.025-.283 0-.308-.055-.595-.167-.86-.111-.265-.329-.398-.654-.398-.291 0-.582.124-.873.372-.292.249-.437.578-.437.989 0 .274.073.492.218.655.146.162.338.295.578.398.24.103.509.188.809.257.3.068.595.137.886.205.411.103.8.227 1.168.372.368.146.698.339.989.578.291.24.522.535.693.886.172.351.257.783.257 1.297 0 .719-.167 1.323-.501 1.81-.333.488-.796.882-1.386 1.182-.591.299-1.284.509-2.08.629s-1.648.18-2.556.18c-1.386 0-2.533-.103-3.441-.308-.907-.206-1.54-.403-1.9-.591l.539-2.568h3.467c-.017.08-.025.162-.026.244v.244c0 .394.09.706.27.937.18.231.492.347.937.347.497 0 .852-.141 1.066-.424.214-.282.321-.543.321-.783a.86.86 0 0 0-.27-.629 2.375 2.375 0 0 0-.68-.463 5.885 5.885 0 0 0-.912-.333c-.334-.095-.655-.184-.963-.27a4.687 4.687 0 0 1-.757-.257 3.082 3.082 0 0 1-.809-.513 2.654 2.654 0 0 1-.642-.861c-.171-.351-.257-.792-.257-1.322 0-.754.184-1.383.552-1.888a4.09 4.09 0 0 1 1.438-1.22 7.094 7.094 0 0 1 2.003-.667 12.358 12.358 0 0 1 2.247-.206c.942 0 1.832.086 2.671.257.839.171 1.524.394 2.054.668l-.59 2.594h-3.339zm5.111-3.236h5.444l.899 7.55 3.107-7.55h4.905l.873 7.55 3.107-7.55h2.722l-5.11 11.042h-5.367l-.95-5.598-2.594 5.598h-5.367l-1.669-11.042zm25.423 11.042h-5.213l2.337-11.042h5.264l-2.388 11.042zm8.654 0h-5.239l1.978-9.322h-2.003l.385-1.72h1.977l.231-1.053c.223-1.027.548-1.896.976-2.607.428-.71.937-1.288 1.528-1.733a5.717 5.717 0 0 1 2.016-.963 9.54 9.54 0 0 1 2.414-.295c.531 0 1.096.034 1.695.102.599.069 1.224.18 1.874.334l-.41 2.055c-.377-.052-.779-.09-1.207-.116a17.62 17.62 0 0 0-1.028-.038c-.342 0-.637.025-.886.077a1.554 1.554 0 0 0-.654.295 1.84 1.84 0 0 0-.488.603c-.137.257-.249.6-.334 1.028l-.488 2.311h1.207c.65 0 1.215-.077 1.695-.231a4.49 4.49 0 0 0 1.309-.668c.42-.316.804-.678 1.143-1.079.409-.478.807-.966 1.194-1.463h2.645l-.744 3.441h2.003l-.334 1.72h-2.029l-1.053 5.008c-.085.394-.154.745-.205 1.053a4.69 4.69 0 0 0-.077.719c0 .342.124.556.372.642.248.086.715.128 1.4.128l-.386 1.772c-.119.034-.303.06-.552.077-.248.017-.522.039-.821.064-.3.026-.608.043-.925.052-.278.008-.556.012-.834.013-.428 0-.848-.03-1.259-.09a3.213 3.213 0 0 1-1.104-.36 2.018 2.018 0 0 1-.783-.783c-.197-.342-.296-.805-.296-1.387 0-.205.013-.462.039-.77.026-.308.081-.651.167-1.027l1.078-5.111h-3.21l-1.977 9.322zM152.2 35.912h1.916l.224-1.02c.216-.996.56-1.838 1.033-2.527a6.042 6.042 0 0 1 1.718-1.68 7.07 7.07 0 0 1 2.24-.933 11.438 11.438 0 0 1 2.601-.287c.814 0 1.589.075 2.328.224.738.15 1.531.39 2.377.722l-.796 2.465a11.204 11.204 0 0 0-1.581-.56 6.391 6.391 0 0 0-1.68-.212c-.316 0-.631.025-.946.075a2.737 2.737 0 0 0-.871.286c-.266.141-.498.34-.697.597-.2.258-.349.594-.449 1.008l-.398 1.842h8.215l-2.29 10.704h-5.078l1.916-9.036h-3.111l-1.942 9.036h-5.053l1.892-9.036h-1.917l.349-1.668zm21.556 4.531l5.8-4.531h3.286l-4.953 4.058 3.709 6.646h-5.576l-2.539-5.003-1.046 5.003h-5.078l3.535-16.728h5.103l-2.241 10.555z"/><path d="M184.062 36.833c.827-.407 1.7-.712 2.601-.908.888-.191 1.88-.286 2.975-.286 1.062 0 1.941.083 2.638.249.697.166 1.253.406 1.668.721.415.316.705.689.871 1.121.166.431.249.921.249 1.468 0 .316-.02.656-.062 1.021-.033.309-.078.616-.137.921l-1.17 5.476h-4.007l-.448-1.593h-.15a5.402 5.402 0 0 1-1.854 1.332 5.245 5.245 0 0 1-2.104.46c-.398 0-.788-.058-1.17-.174a2.997 2.997 0 0 1-1.02-.535 2.659 2.659 0 0 1-.722-.921c-.183-.373-.274-.826-.274-1.357 0-.863.237-1.547.709-2.053.473-.507 1.096-.888 1.867-1.145.772-.258 1.643-.419 2.614-.486a43.253 43.253 0 0 1 2.925-.099c.033-.166.075-.403.124-.71.05-.307.075-.576.075-.809 0-.299-.079-.576-.236-.834-.158-.257-.486-.386-.984-.386-.58 0-1.008.171-1.282.511a2.656 2.656 0 0 0-.535 1.232h-3.634l.473-2.216zm5.725 4.382h-.448c-.481 0-.892.062-1.232.186-.34.125-.614.287-.822.486-.207.199-.36.423-.46.672a1.995 1.995 0 0 0-.149.747c0 .398.103.697.311.896.207.199.452.298.734.298.349 0 .693-.124 1.033-.373.34-.249.552-.581.635-.996l.398-1.916z"/></g><path d="M46.769 101.357a56.189 56.189 0 0 0 8.673-3.592c2.805-1.446 5.308-3.193 7.508-5.243a23.958 23.958 0 0 0 5.275-7.152c1.316-2.719 1.975-5.847 1.975-9.385 0-1.726-.173-3.064-.518-4.013-.346-.95-.95-1.424-1.813-1.424-.776 0-1.499.366-2.168 1.1-.669.734-1.273 1.661-1.812 2.783a30.786 30.786 0 0 0-1.489 3.754 47.594 47.594 0 0 0-1.133 4.013H49.552l2.136-9.709c2.416-2.071 4.962-3.678 7.638-4.822 2.675-1.143 5.695-1.715 9.061-1.715 2.071 0 4.024.237 5.858.712 1.834.475 3.43 1.219 4.79 2.233a11.093 11.093 0 0 1 3.236 3.819c.798 1.532 1.197 3.355 1.197 5.469 0 1.597-.269 3.172-.809 4.725-.539 1.554-1.488 3.161-2.848 4.822-1.359 1.662-3.193 3.388-5.501 5.178-2.309 1.791-5.232 3.722-8.771 5.793h14.434l-1.294 8.997H45.345l1.424-6.343zm63.302-35.405c3.365 0 6.127.475 8.285 1.424 2.157.949 3.862 2.416 5.113 4.401.863 1.338 1.532 2.859 2.007 4.564.474 1.704.712 3.635.712 5.793 0 1.812-.173 3.667-.518 5.566a33.254 33.254 0 0 1-1.489 5.502 34.208 34.208 0 0 1-2.298 5.016c-.884 1.575-1.866 2.945-2.945 4.11-1.942 2.158-4.164 3.679-6.667 4.563-2.502.885-5.544 1.327-9.126 1.327-3.452 0-6.246-.388-8.382-1.165-2.136-.777-3.83-2.028-5.081-3.754-1.036-1.251-1.802-2.837-2.298-4.757-.496-1.921-.744-4.154-.744-6.7 0-2.287.216-4.52.647-6.699a28.875 28.875 0 0 1 1.91-6.116 24.666 24.666 0 0 1 3.074-5.178 18.845 18.845 0 0 1 4.143-3.949c1.812-1.294 3.829-2.276 6.051-2.945 2.223-.669 4.758-1.003 7.606-1.003zm-7.055 37.735c.863 0 1.693-.453 2.492-1.359.798-.906 1.542-2.104 2.233-3.592.69-1.489 1.305-3.193 1.844-5.114a70.22 70.22 0 0 0 1.392-5.954c.388-2.05.69-4.057.906-6.02.216-1.963.324-3.765.324-5.404 0-2.201-.194-3.722-.583-4.564-.388-.841-.949-1.262-1.683-1.262-.906 0-1.769.442-2.589 1.327-.82.885-1.575 2.05-2.265 3.495-.691 1.446-1.327 3.118-1.91 5.017a64.132 64.132 0 0 0-1.488 5.825 64.376 64.376 0 0 0-.939 5.89c-.216 1.942-.323 3.711-.323 5.307 0 2.417.237 4.089.712 5.017.474.927 1.1 1.391 1.877 1.391zm25.372-2.33a56.09 56.09 0 0 0 8.673-3.592c2.805-1.446 5.308-3.193 7.509-5.243a23.958 23.958 0 0 0 5.275-7.152c1.316-2.719 1.974-5.847 1.974-9.385 0-1.726-.173-3.064-.518-4.013-.345-.95-.949-1.424-1.812-1.424-.777 0-1.5.366-2.168 1.1-.669.734-1.273 1.661-1.813 2.783a31.073 31.073 0 0 0-1.488 3.754 46.855 46.855 0 0 0-1.133 4.013h-11.716l2.136-9.709c2.417-2.071 4.963-3.678 7.638-4.822 2.675-1.143 5.696-1.715 9.062-1.715 2.071 0 4.024.237 5.857.712 1.834.475 3.431 1.219 4.79 2.233a11.093 11.093 0 0 1 3.236 3.819c.799 1.532 1.198 3.355 1.198 5.469 0 1.597-.27 3.172-.809 4.725-.54 1.554-1.489 3.161-2.848 4.822-1.359 1.662-3.193 3.388-5.502 5.178-2.308 1.791-5.232 3.722-8.77 5.793h14.434l-1.295 8.997h-33.334l1.424-6.343zm63.302-35.405c3.366 0 6.128.475 8.285 1.424 2.158.949 3.862 2.416 5.114 4.401.863 1.338 1.531 2.859 2.006 4.564.475 1.704.712 3.635.712 5.793 0 1.812-.173 3.667-.518 5.566a33.35 33.35 0 0 1-1.488 5.502 34.36 34.36 0 0 1-2.298 5.016c-.885 1.575-1.867 2.945-2.945 4.11-1.942 2.158-4.164 3.679-6.667 4.563-2.503.885-5.545 1.327-9.126 1.327-3.452 0-6.246-.388-8.382-1.165-2.136-.777-3.83-2.028-5.081-3.754-1.036-1.251-1.802-2.837-2.298-4.757-.496-1.921-.745-4.154-.745-6.7 0-2.287.216-4.52.648-6.699a28.93 28.93 0 0 1 1.909-6.116 24.628 24.628 0 0 1 3.075-5.178 18.886 18.886 0 0 1 4.142-3.949c1.812-1.294 3.83-2.276 6.052-2.945 2.222-.669 4.757-1.003 7.605-1.003zm-7.055 37.735c.863 0 1.694-.453 2.492-1.359.798-.906 1.543-2.104 2.233-3.592.691-1.489 1.305-3.193 1.845-5.114a70.993 70.993 0 0 0 1.391-5.954c.389-2.05.691-4.057.907-6.02.215-1.963.323-3.765.323-5.404 0-2.201-.194-3.722-.582-4.564-.389-.841-.95-1.262-1.683-1.262-.906 0-1.769.442-2.589 1.327-.82.885-1.575 2.05-2.266 3.495-.69 1.446-1.327 3.118-1.909 5.017a63.483 63.483 0 0 0-1.489 5.825 64.03 64.03 0 0 0-.938 5.89c-.216 1.942-.324 3.711-.324 5.307 0 2.417.237 4.089.712 5.017.475.927 1.1 1.391 1.877 1.391z" fill="none" stroke="#fff" stroke-width=".65" stroke-linecap="butt" stroke-linejoin="round" stroke-miterlimit="2"/><path d="M42.507 57.38h170.989" fill="none" stroke="#fff" stroke-width=".8" stroke-linejoin="round"/><path d="M8.773 126.133l8.046 7.856h225.407l5.004-7.625" fill="none" stroke="#fff" stroke-width=".5"/></svg>